<svg xmlns="http://www.w3.org/2000/svg" viewBox="0 0 32 32">
  <defs>
    <radialGradient id="bg" cx="40%" cy="35%" r="70%">
      <stop offset="0%" stop-color="#0d1630"/>
      <stop offset="100%" stop-color="#050810"/>
    </radialGradient>
    <linearGradient id="g1" x1="0%" y1="0%" x2="100%" y2="100%">
      <stop offset="0%" stop-color="#22d3ee"/>
      <stop offset="100%" stop-color="#d946ef"/>
    </linearGradient>
    <linearGradient id="g2" x1="100%" y1="0%" x2="0%" y2="100%">
      <stop offset="0%" stop-color="#22d3ee" stop-opacity="0.5"/>
      <stop offset="100%" stop-color="#d946ef" stop-opacity="0.5"/>
    </linearGradient>
    <filter id="glow" x="-30%" y="-30%" width="160%" height="160%">
      <feGaussianBlur stdDeviation="1.2" result="blur"/>
      <feMerge><feMergeNode in="blur"/><feMergeNode in="SourceGraphic"/></feMerge>
    </filter>
    <filter id="softglow" x="-50%" y="-50%" width="200%" height="200%">
      <feGaussianBlur stdDeviation="2" result="blur"/>
      <feMerge><feMergeNode in="blur"/><feMergeNode in="SourceGraphic"/></feMerge>
    </filter>
  </defs>
  <rect width="32" height="32" rx="6" fill="url(#bg)"/>
  <circle cx="10" cy="10" r="8" fill="#22d3ee" opacity="0.04"/>
  <circle cx="22" cy="22" r="8" fill="#d946ef" opacity="0.05"/>
  <line x1="4" y1="16" x2="13" y2="16" stroke="#22d3ee" stroke-width="0.9" stroke-linecap="round" opacity="0.55"/>
  <line x1="19" y1="16" x2="28" y2="16" stroke="#d946ef" stroke-width="0.9" stroke-linecap="round" opacity="0.55"/>
  <line x1="16" y1="4" x2="16" y2="13" stroke="#d946ef" stroke-width="0.9" stroke-linecap="round" opacity="0.45"/>
  <line x1="16" y1="19" x2="16" y2="28" stroke="#22d3ee" stroke-width="0.9" stroke-linecap="round" opacity="0.45"/>
  <line x1="7" y1="7" x2="11" y2="11" stroke="#22d3ee" stroke-width="0.7" stroke-linecap="round" opacity="0.3"/>
  <line x1="25" y1="7" x2="21" y2="11" stroke="#d946ef" stroke-width="0.7" stroke-linecap="round" opacity="0.3"/>
  <line x1="7" y1="25" x2="11" y2="21" stroke="#22d3ee" stroke-width="0.7" stroke-linecap="round" opacity="0.3"/>
  <line x1="25" y1="25" x2="21" y2="21" stroke="#d946ef" stroke-width="0.7" stroke-linecap="round" opacity="0.3"/>
  <polygon points="16,9.5 21.2,12.75 21.2,19.25 16,22.5 10.8,19.25 10.8,12.75" fill="none" stroke="url(#g1)" stroke-width="1" opacity="0.6" filter="url(#glow)"/>
  <polygon points="16,12 19.2,13.8 19.2,17.6 16,19.4 12.8,17.6 12.8,13.8" fill="none" stroke="url(#g2)" stroke-width="0.7" opacity="0.7"/>
  <circle cx="16" cy="16" r="2.2" fill="url(#g1)" filter="url(#softglow)" opacity="0.95"/>
  <circle cx="16" cy="16" r="1.1" fill="#ffffff" opacity="0.85"/>
  <circle cx="4" cy="16" r="1" fill="#22d3ee" opacity="0.6" filter="url(#glow)"/>
  <circle cx="28" cy="16" r="1" fill="#d946ef" opacity="0.6" filter="url(#glow)"/>
  <circle cx="16" cy="4" r="1" fill="#d946ef" opacity="0.5"/>
  <circle cx="16" cy="28" r="1" fill="#22d3ee" opacity="0.5"/>
  <rect x="5.5" y="5.5" width="2" height="2" rx="0.5" fill="#22d3ee" opacity="0.25"/>
  <rect x="24.5" y="5.5" width="2" height="2" rx="0.5" fill="#d946ef" opacity="0.25"/>
  <rect x="5.5" y="24.5" width="2" height="2" rx="0.5" fill="#22d3ee" opacity="0.2"/>
  <rect x="24.5" y="24.5" width="2" height="2" rx="0.5" fill="#d946ef" opacity="0.2"/>
</svg>
